<svg id="Layer_1" data-name="Layer 1" xmlns="http://www.w3.org/2000/svg" xmlns:xlink="http://www.w3.org/1999/xlink" viewBox="0 0 129.23 138.41"><defs><clipPath id="clip-path"><polygon points="-1088.96 1452.35 -882.26 1452.35 -882.26 1323.35 -1088.96 1323.35 -1088.96 1452.35 -1088.96 1452.35" style="fill:none;clip-rule:evenodd"/></clipPath></defs><title>btr</title><g style="clip-path:url(#clip-path)"><path d="M-1934.09,1670.42l-41.54-46.53c-12.17-14-42.95-54.85-53.74-70.09-7-9.9-12.94-18-19.49-27.92-59.41-90-103.56-175.39-140-276.05l-14.07-41c-11.83-41.59-22.69-79.87-32.14-122.45A1018.93,1018.93,0,0,1-2253,978.13c-4.18-37.68-8-76-8.06-114l1.86-100.79c.74-13,.42-26.42,2.32-39.28a112.58,112.58,0,0,0,1.48-13.32l2-19.59c.46-3.18.9-3.59,1.15-7,.17-2.45,0-3.84.4-6.28l17.21-99.92c5.33-26.54,12.13-53.24,19.72-79.27,11.84-40.59,21.06-66.38,35.17-105.19,23.1-63.55,54-123.84,87.65-182.58,23.84-41.57,56.74-91.82,86.83-129,6.87-8.49,13.08-16.84,20.16-25.64,48.5-60.35,92.65-103.25,151.86-156,7-6.26,14.26-13,20.71-17.37l21.48-17.25c14.93-12,28.77-21.78,42.85-32.37,64.23-48.29,137-87.88,209.55-121.25,14-6.44,28.35-12.18,42-18.1a973.23,973.23,0,0,1,123.87-43.13c124.86-33.79,202.79-45.65,328.38-49.26,12.31-.36,29.27,1.2,41,.31,10.34-.79,21,1.43,31.47,1.09,16.7-.53,32.77,2.23,49.48,3.16l30.55,3.26c19.92,2.92,40.31,4.59,60.24,8.07,3.52.61,6.45,1.05,10.15,1.66,54.11,8.85,107.8,22.16,160.17,38.56l60.29,20.82c70.55,23.1,174,77.85,237.57,118.43,26.54,16.93,51.83,34.69,78.07,54.39C-245-118.4-205.91-84.53-169-49.11l47.58,50c4.28,4.84,6,5.51,9.72,9.18L-75.4,53.13a79.83,79.83,0,0,0,8.76,10.75c4.33,4.8,4.78,6.69,8,10.71C15.74,166.89,78.22,279,120.23,389.92c28.52,75.28,51,150.25,63.83,227.54,6.83,41,12.14,81.79,15.72,123.08l2.48,40.35c1.26,47.59,1.9,95-1.75,142.57-.32,4.19-1.17,5.9-1.43,10.17l-3.82,40.77c-3.45,23.55-5.72,46.9-9.91,70.38l-7.56,39.77c-15.49,75.75-39.66,148.82-68.2,220.74-10.74,27.06-23.08,52.82-36.19,79.12a1256.65,1256.65,0,0,1-80.66,138c-33.43,50-81.24,113.06-123.62,155.29l-68.59,67c-4.85,4.34-5,6-9.13,9.79-4.42,4.08-6,3.83-10.75,7.93l-75.24,61.18c-45.72,37.37-142.14,92.47-189.52,115.58C-537,1965-594.8,1990-651.16,2006.81l-40.92,12.49c-13.69,4.79-28.13,7.21-41.62,10.89l-40.74,9.41c-69.79,14.56-143.68,25.22-215.12,26l-98.49-.79c-11.54.24-22.32-1.51-33.77-2.13-7-.37-13.54-.48-20.43-1.14l-29.77-3.28c-10.21-.58-20.33-2.81-30.5-4.1-50.46-6.39-112.68-19.24-161.22-34-39.94-12.15-80-24.77-119.09-40.33l-40-17c-33.6-15.13-67.37-30.62-99.67-48.89-13.5-7.63-25.49-14.61-38.92-22.33-92.25-53-201.64-141.54-272.66-221.21ZM-128.47-25.51l42.88,48.1c59.74,67,114.42,149.59,154.32,225.64,33.5,63.87,61.41,126.34,83.05,194l8.71,27.3c9.65,27,15.17,55.67,22.23,83.26C193,593,199.19,634.27,205,675.42l8.68,95.09c1.62,25.92,2.6,70,1.16,94.66a119.62,119.62,0,0,0-.05,13.39c.41,13-5.88,91.94-8.67,108.29-5.4,31.73-8.69,60.79-15.28,93.72-.93,4.63-2,8.74-2.92,13.23l-9.25,40.46c-12.91,49.25-27.22,98.19-46.09,145.55C77.39,1418.4,11.22,1530.08-85.82,1645.65c-11.58,13.79-34.07,40.08-47,51.69-8.6,7.71-16,17.41-25.1,25.36-5.54,4.85-7.73,8-11.81,12l-46.44,41.4c-34.75,31-75.65,61.94-113.8,87.4s-75,48.24-112.68,68c-36.34,19-74.12,37.87-111.8,52.46-27.71,10.73-55.46,22-83.77,31.18l-97,27.87c-30.42,8.24-64.58,14.67-95.7,19.31-9.8,1.46-18.05,2.84-27.83,4.22l-163.86,11.84c-12.3.87-45.19-.66-61.43-.91-2.41,0-3.86-.19-6.29-.34-4.83-.29-8.52-.49-13.35-.77l-40.82-3.1c-13.63-.75-27.07-3.78-40.72-4.75l-26.59-3.59c-4.92-.88-9.15-1.27-14.08-2-54.46-7.73-108.4-21.48-161-37.26l-39.49-12.5c-45.74-14.53-89.6-34.16-133.28-53.79-9.13-4.11-17-8.16-26.08-12.67-18.08-9-35-18-52.77-28.17-35.07-20.13-69.63-41-105-65.81-82.2-57.61-153.25-122.09-222.64-199.93-16.57-18.58-34.18-39.47-47.36-57.9-7.39-10.32-15-18.48-22.11-28.86-19-27.53-39-56-55.88-84.4a1445.24,1445.24,0,0,1-85.9-168.89c-24-55.78-40.48-109.73-56-167.18-1.29-4.78-2.71-9.63-3.92-14.41-10.45-41.25-23.71-108.41-27.26-150.55L-2273,864.26c-.46-15.63-1.37-31.66-.35-47.31l.8-27.55c.54-9.46.2-17.29.75-26.75.55-9.72,1.8-17.72,2.36-27.46l4-41.55c2.11-22.5,5.78-44.87,9.33-67.26,5-31.65,11.58-63.19,19.71-94.25,9.52-36.39,20.63-71.9,32.44-107.71l14.22-39.38c5.83-17.8,14.91-35.62,22.15-53.12,1.9-4.61,4.35-9.9,6.28-13.83l19.19-39.89a1199,1199,0,0,1,59-105.4C-2022.71,77-1952.32-10.07-1866.35-86.71c51.38-45.8,80.25-67.73,133.78-105.83,18.39-13.1,37.7-24.79,56.49-36.53,69.27-43.31,147-79.21,223.7-107,9.55-3.46,17.82-6.28,27.35-9.48,31.94-10.73,64.67-19.38,97-28.24,56.24-15.43,145.87-29.93,205.28-33.11l41.13-2.5c22.58-.22,45.39-2.35,67.84-.86,13.36.88,26.8-.15,40.16.7,4.83.3,8.53.5,13.36.78,14.59.84,40.36,2.17,54.13,4.52l34.47,3.72c15.62,1.28,31.4,4.15,46.91,6.82,45.23,7.77,89.49,18.3,133.86,29.94,9,2.36,17.84,5.25,27.12,8.17a1329.33,1329.33,0,0,1,132,48.8l53,24.84c9.2,4.12,17.84,8.92,26.81,13.66a1375.43,1375.43,0,0,1,130.29,78.5c35.53,24.12,69,50.78,104.17,80.33,13.79,11.58,40.08,34.07,51.69,47,7.71,8.6,17.41,16,25.36,25.1,4.86,5.54,8,7.73,12,11.81Z" style="fill:#521860;fill-rule:evenodd"/><path d="M-225.68,1735.37c-17.33,15.45-61.75,52.81-81.83,66.13l-28,20.27c-44.83,30.34-88.69,57.65-136.38,82.67-54.66,28.66-130.37,61.81-189.78,78.91l-53.74,16.1c-9.38,2.54-17.32,4.15-26.39,6.64l-106.85,21.16c-5,1-8.46,1.32-13.51,2l-159.11,11.6-39.39-.41c-13.56,1-68.08-2.74-79.35-4.67l-117.3-16.44c-57.67-9.19-156.33-39-207.83-59.78l-64.64-27.44-77.38-39c-96.7-52.53-171.15-109.25-253.51-184.07-57.58-52.32-128.67-139.61-170.73-202.69-38.3-57.45-89.33-147.68-114.44-214.67l-15.19-39.5a757.11,757.11,0,0,1-26.69-80.36c-1.22-4.61-2.34-8.68-3.68-13.61-4.73-17.47-10.1-35.16-13.71-52.82-16.9-82.64-27.84-148.79-30.38-235.86l-.13-64.64c.34-5.32-.32-8.4,0-13.41l3-52.64c.9-17.42,4.29-34.37,5.33-51.72l3.46-25.81c.7-3.77,1.42-8.42,1.89-12.51,2.5-21.7,7.58-43.29,11.89-64.74,5.21-25.92,12.53-51.34,19-77,2.26-8.9,4.88-16.56,7.58-25.58,9-30,20-59.39,30.72-88.89,1.83-5,3.61-8.37,5.73-13.07l16.39-38.47c14.42-32.24,28.18-57.28,44.08-88.91,13-25.87,29.88-50.86,45.18-75.45,38.45-61.8,87-119.22,137-174.23,3.52-3.87,8.29-9,11.44-12,14.16-13.25,24.64-24.9,39.27-37.94l72.19-62.91c4.42-3.72,7.79-5.68,13.2-10.27,12.75-10.82,58.59-42.85,69-49.37l54.8-34.53c85.59-50.12,181.11-91.15,270.87-118.34l32.84-9.11c24.47-6.11,48.85-12.75,73.51-17.33,39.8-7.4,79.15-13.54,119.27-17.76l79.92-5.4c3,0,3.53-.26,6.33-.33l33.14-.53c9.29,0,17.46.41,26.75.76l26,.67c17.34,1,35.42.95,52.64,3l78.26,9.82c39.31,6.43,78,15,116.88,23.84,42.13,9.59,101.49,30.24,143.14,46.83l25.4,10.68c52.75,22,104.2,48.74,153.19,77.8,26.32,15.61,51.73,32,76.73,50.33A1498.26,1498.26,0,0,1-203.8-46.73c7.85,7.11,17.44,16.86,25.43,24l49.81,52.29L-40.87,141C43,259,101.19,390.65,137.56,524.92c2.63,9.7,4.22,17.43,6.87,27.2,9.4,34.69,21.46,101.37,24.51,135.41,3.84,43,7.75,76.23,8.89,121.12,1.11,44.27-1,88.81-4.37,133l-3.16,26.62c-.23,2.39-.13,3.85-.31,6.29-1.8,24-9.37,65.89-13.63,86.71-11,53.64-26.84,121.9-46.29,171.56l-25,65.56c-7,17.61-15.4,34.16-23.19,51.49-26.69,59.38-67.48,129.36-105.94,181.53l-38.41,51.4c-27.31,36-59.63,68.11-90.06,102-4.16,4.65-8.92,7.76-13,12.66l-40.14,37.9Zm-1725.84-104.58,37,41.6c9.78,10.93,27.91,27.27,38,37.61,44.2,45.07,101.52,90.21,151.29,124.57,33.39,23,67.07,43.42,102,63.57,8.77,5.06,16.7,8.76,25.23,13.67,23.62,13.61,65,33.17,90.53,43.24l39.28,16.19A1149.36,1149.36,0,0,0-1338.89,2013c4.86,1.27,8.47,2.2,13.2,3.45l38.89,9.08c4.72.94,8.66,1.81,13.24,2.88,25.72,6.06,52.16,8.53,78.06,13.29,2.88.52,3.61.35,6.27.65,3.16.37,3.74.88,7,1.18,17.77,1.61,35.45,4.39,53.29,5.41l66,3.81c17.48,1.05,35.19-.11,52.82-.11l26-.5c31.09-2.06,62.43-3.71,93.43-7.25,8.7-1,17.18-2.47,26.21-3.35l106.73-19.26c9.49-2.11,18.06-4.34,27.2-6.84,4.8-1.32,8.78-1.82,13.58-3.14A1344.42,1344.42,0,0,0-514,1938.55c63.59-29,134-68.8,191.62-111.13,49.42-36.32,77-59.6,124.07-101.52,9.82-8.75,16.89-16.68,25.86-24.53,16.67-14.58,54.53-56.87,69.62-74.83,70.31-83.73,134.73-179.86,179.34-279.79,3.92-8.77,8.39-17,12-26.12,10.2-25.65,21-50.4,30.38-76.29,12.37-34,22.91-68.8,32-103.79l17.6-78.61c4.73-23.29,8.8-47.42,11.55-71.07l5.8-59.58c.13-2.35.1-4,.37-6.28.39-3.14.89-3.77,1.2-7l2.22-104.71c-.13-2.51.18-3.73.12-6.3-1.3-51.21-6.3-102.16-13.3-152.9-.66-4.85-1.57-8.68-2.22-13.53l-18.77-93.31c-5-18.06-8.15-35.84-14.38-53.64-1.73-4.95-2.4-9.09-3.85-13.62-5.78-18.06-11.6-35.35-17.73-53.83-15.45-46.56-35.83-90.6-57.23-134.93-4.69-9.72-9-17.84-14.13-27.61C9.53,190-44.42,107.25-101,43.78L-137.29,3.07C-146-6.75-154-13.82-161.81-22.79c-24.91-28.47-97-89-126.07-110.88l-50.7-36.8a574.47,574.47,0,0,0-50.92-33.08c-57.17-33.34-92.44-52.71-154.6-80.78-4.23-1.91-7.71-3-12.31-5.24-4.22-2.08-8.32-3.54-13.09-5.43l-64.82-24.22c-38.26-14.08-77.76-23.29-117.09-33.79-17.13-4.57-34.8-7.49-52.19-11l-64.83-10.4c-2.91-.41-3.13-.8-6.24-1.08a55.62,55.62,0,0,1-7.06-.67c-24.2-4.51-48.67-3.33-72.94-6.48l-59.76-2.47c-4.85-.25-7.53.42-12.62.09l-19.72.29c-2.75.13-4.35-.22-7.1-.09-54.07,2.7-90.23,4.23-145.73,12.05-9.22,1.3-17.78,2.18-27,4-41.1,8.09-80.08,14.95-120.52,25.93-50.53,13.72-100.73,30.2-148.75,50.93-36.13,15.59-73.5,32.95-108.58,51.35-76.52,40.14-155.47,93.27-220.74,151.45l-44.1,39.25-60.75,62.73c-8,9.19-15,16.44-22.59,25.5-28.29,33.74-55.13,67.11-78.7,101.9-33.59,49.59-64.67,99.43-90.27,153.27-8.36,17.57-17.13,34.88-24.13,52.21-6.79,16.8-15.6,34.54-21.19,51.6-5.69,17.4-13.22,34.31-18.78,51.74-19.29,60.52-34.76,120.87-45.68,183.41-1.58,9.05-2.54,17.32-4.21,26.56-.53,2.88-.35,3.61-.66,6.27-1.27,11-3.71,21.73-4.22,32.87-.62,13.43-3.11,26.51-3.88,40-1.25,21.87-3.77,44.15-3.07,66l-.63,39.38c-.9,20.47,1.55,58.93,3.37,79.81l10.57,93.63c.7,5,1.56,8.62,2.22,13.52,2.43,18,6.49,35.46,10,53.39,7.16,36.68,17.59,72.07,27.82,108,1.35,4.73,2.65,8.11,4,12.84l46.18,121.68c34.57,80.33,75.61,146.63,125.84,220.06l66.58,84.22Z" style="fill:#521860;fill-rule:evenodd"/><path d="M-1910.87,1622.88c-32.25-36.18-64.37-76.45-88.63-112.29-12.79-18.91-24-35.61-35.62-54.08a1047.62,1047.62,0,0,1-59.24-108.24c-47.83-100.93-84-208.36-101.22-318.75-11.15-71.38-14.49-119-16.7-190.15l1.73-72.42a1155.69,1155.69,0,0,1,14.69-129.22l16-77.92c5.34-25.83,13.19-51.6,21-76.83,8.05-25.94,16.83-51.09,27-76.49,5.22-13.11,9.53-25.72,15.74-38.51l17.28-38.43C-2050.72,230.11-1992.13,136-1917.72,53c98.4-109.67,192.62-184.41,320.58-256.59,52.73-29.75,105.08-53,160.25-72.79l53.06-17.9c43.52-14.5,87-24.89,131.18-33.23l26.29-4.77c26.07-5,52.39-7.26,78.65-10.7,26-3.39,52.22-4,78.34-5.21l18.95-.48a527.14,527.14,0,0,1,59.1.41l26,.69c8.38.48,17,.53,25.14,1.56l.78.11,63.47,6.6a43.5,43.5,0,0,1,6.25,1l122.43,23.11c17.34,3.58,34.31,8.66,51.23,13.92,38.95,12.11,77.43,24.52,115.14,40.25,4.64,1.94,7.62,3.62,12.3,5.46,5.1,2,7.94,3.26,13.08,5.67l25.36,11.29c97.94,44.86,194.64,107.25,275.89,178.68,53.9,47.39,82.39,78.06,129,129.87l62,80.82c3.67,5.34,6.34,8.63,9.89,14,42.84,64.18,71.89,116.54,104.07,186.49,4.11,8.95,8.18,17.33,11.6,26.68l20.83,53.22c3.11,8.54,6.2,18,9.18,26.54,5.87,16.8,20.19,62.07,23.57,78.61,1.8,8.78,4.57,17.21,6.32,26.37.91,4.76,2.15,8.12,3,12.79,7.31,39.19,15.93,78.26,20.33,117.83l5.89,64.19c.3,4.93.66,8.73.91,13.45.24,4.39.22,8.33.41,12.64L153.82,823c1.61,21.21-1.93,81.13-3.13,103.08-.27,5-1.28,7.54-1.55,12.53-.59,10.71-1.17,21.63-3.13,32.14a53.79,53.79,0,0,0-.66,7.05c-.29,3.12-.67,3.33-1.09,6.25-.36,2.48-.17,3.85-.45,6.28-.33,2.85-.72,3.36-1.09,6.24L112.91,1143.1c-1.22,4.74-2.55,8.44-3.76,13.18-4.41,17.36-10.31,33.72-15.72,51.13-2.79,8.95-5.91,16.51-8.73,25.51-1.38,4.41-3.17,8.31-4.78,12.34-1.86,4.62-2.82,8.51-4.68,13.13-22.51,56-47.59,111.06-78,163.43l-22.88,38.1C-127,1628.24-294.24,1784.49-467.82,1875.18c-27.11,14.17-52.76,27.5-80.3,39.35-4.83,2.07-8.13,3.35-12.94,5.65-30.6,14.62-62,24.79-93.48,35.62-4.76,1.63-8.15,3-12.86,4.36l-40.1,11.89c-26.21,7.09-52.67,14.31-79.16,19.51l-52.59,9.86c-52,7.69-104.27,14.34-156.94,14.93l-26,.76c-8.57.24-18.07-.91-26-.48-12.46.69-38.82-.81-51.94-1.56l-103.43-10.74-51.51-9c-8.87-1.79-16.8-3.55-25.7-5.44-16.73-3.55-35.1-7.13-51.33-12.23l-102.2-32.29c-8.91-2.71-16.49-6.62-25.44-9.9-61.76-22.62-120.63-53.56-177.1-87-26-15.37-50.26-31.93-75.24-48.81-34.74-23.46-67.5-50.52-99.54-78.57a1140.39,1140.39,0,0,1-99.21-98.21Zm-10.62,6.48c16,18,33.11,35.72,49.8,52.53,3.29,3.31,3,2.27,6,5.16l44.15,41.21c33,30.68,68,55.9,101,80.15,32.66,24,67.22,44.85,101.92,64.77l38.22,20.72c4.91,2.69,8.12,4,13,6.66,17.27,9.47,34.25,16.22,51.4,24.61,39.44,19.29,112.84,45.2,155.18,56.9,17.74,4.9,34.28,9.29,52,13.87,4.37,1.13,7.85,1.86,12.45,2.87l39.71,8.48c8.61,1.65,16.79,2.91,25.76,4.51,9.16,1.64,17.49,3.2,26.55,4.35l25.81,3.49c13,2.51,36.93,3.87,52.49,5.76l52.63,3c18.63.35,49.64,1.47,66.2.36l92.55-5.54c26.65-3.5,53.6-5.83,80.21-10.37,36-6.16,71.51-13.39,106.95-23.08l12.81-3.42c4.45-1.4,8.74-2.41,13.62-3.73,9.44-2.56,17.75-5,27.25-7.89,18.29-5.5,35.56-11.71,53.87-18.35A1096.23,1096.23,0,0,0-511.65,1911c47.34-23.12,121.08-63,163.9-95.13l55.13-40.38c5.07-3.59,9.61-8.24,14.05-11.22,5.06-3.4,9.51-8.13,14.1-12.21,5.35-4.76,8.24-5.73,14-11,24.56-22.15,74-66.88,94.17-90.78,3.85-4.57,7.84-8.66,11.83-12.73,27.43-27.92,69.05-82,90.91-113.81,22.92-33.31,46-66.9,64.43-101.93,18.17-34.56,36.69-66.14,51.91-102.65l48.5-128.07,11.5-38.75c9.58-29.92,15.22-61.11,21.44-91.79,5.67-28,9.64-56.14,13-84.39L160,955.82c.43-4.45.32-8.05.67-12.57l1.58-13.31c1.15-21.73,3.1-43.55,3-65.26,0-4.68.77-8.67.74-13.35,0-3-.38-3.38-.4-6.33,0-2.31.21-4,.36-6.29,1.27-19.24-.92-46.79-1.75-66.31l-4-53c-.44-5-.84-8.39-1.36-13.48-3.18-31.2-8-62.19-13.76-93-5.05-27-12-53.88-18-80.65a258.5,258.5,0,0,0-7.29-26.44L103,452c-9.09-27.17-20.22-53.7-30.29-80.56C56.85,329.24,12.11,244.78-11.11,208.17c-17.71-27.93-34.95-56-55.15-82-6.53-8.41-14.71-19.47-20.75-28l-52.17-62.12c-57.34-64.33-130.58-130.7-201-178.33-49.51-33.47-99.79-65-153.19-91.66-16.37-8.16-34.46-17.68-51.41-24.47-4.16-1.67-8.19-3.78-12.3-5.45-30.14-12.21-60-25.27-91-34.85l-90.71-26.46c-30.06-7.77-60.4-14.44-91.12-19.32-4.82-.77-8.42-1.2-13.28-2.08-21.95-4-43.67-5.47-65.72-8.73-4.08-.6-8.36-.56-12.57-.78-5.31-.27-8.3-1.28-13.31-1.59-9.25-.58-17.43-1-26.71-1.5-35.5-2-69.84-2.26-105.56-1.24-9,.26-17.05.46-26.07,1.05-75.58,4.95-153.46,14.42-226.64,34.41-40.59,11.08-81.35,23-121.17,37.3a1148.88,1148.88,0,0,0-272.21,141.79,1302.08,1302.08,0,0,0-164,137.34c-3.31,3.29-2.27,3-5.16,6-76,79-131.74,152.34-186.13,247.08-28.59,49.82-52.43,101.85-73.6,155l-27.53,77.25c-1.58,4.51-2.46,8.54-3.9,13.18L-2213,672.21l-10.95,158.61c.93,13.24-.13,26.9.5,40.23.85,18,1.4,35,2.92,53,.76,8.92,1.49,17.39,2.22,26.14,3.33,40.16,13.55,109.74,23.64,146.4l17.39,68c21.54,80.58,65.33,184.73,107.56,256.85,2.61,4.45,5.57,9.3,8,13.86,31.87,59.16,95.91,144.39,140.21,194.08Z" style="fill:#521860;fill-rule:evenodd"/><path d="M-182.65,79.3c21.11,23.68,39.29,47.07,58.24,71.92,1.77,2.32,3.86,4.22,5.6,6.63C-55.65,245.66-2.09,340.75,34.67,442.56l21.25,63.49c4.33,12.11,7.3,26.16,10.63,38.45C71.27,562,75,578,78.89,595.65c11.21,50.57,17.77,100,22.23,151.05l3.54,88.49c0,2.41-.37,3.88-.36,6.29l-.33,18.9c-.06,3.08.28,3.41.37,6.33a60.17,60.17,0,0,1-.28,6.29l-2.85,49.49c-.5,8.91-1.75,16.09-2.21,25.1l-2,18.8a42.54,42.54,0,0,0-1,6.25c-1.77,24.94-7.5,49.57-11.43,74.23-6.94,43.54-24.94,107.29-39.27,148.31-1.51,4.32-2.63,8-4,12.38-8.39,26.69-23,61.22-34.26,86.32-14.56,32.34-30.83,65.44-49.12,97.29-18.67,32.52-38.39,65-61.52,97.37a1194.68,1194.68,0,0,1-75.82,95.76c-26.37,30.18-86.55,93.43-113.27,111.39-7.22,4.85-13.08,11.89-19.91,17.35-4,3.16-5.31,3.17-9.88,7.26-24,21.52-84.07,61.8-108.45,76.71-109.6,67-223,114.18-346.32,141.89-56.59,12.72-113.29,20.68-171,25.71l-47.43,2.46c-3.64.26-5.63-.14-9.47.12-6.56.44-12.49.36-18.93.21-18.58-.45-37.27.23-55.92-.84-13-.74-24.74-1.43-37.72-2.14-4.2-.23-5.5-.87-9.38-1.34-22.08-2.67-43.86-3.23-65.8-7.21-6.41-1.16-11.69-1.86-18-2.94-6.46-1.1-12.1-1.9-18.74-3.11-22.06-4-43.75-8.19-65.43-13.79-3.4-.88-6.15-1.62-9.31-2.44l-37.27-10c-38.69-10.1-111.44-36-147.48-53.6-6-3-12.11-5.4-17.67-8.11-70.19-34.23-137.36-72.18-200.44-119.67-78.15-58.84-147.49-125-211.34-204.87l-28.65-38.69c-60.06-79.91-111.52-179.6-145.15-272.41-4.77-13.17-8.75-25-13.26-37.81-2.13-6-3.8-12.68-6.09-19.27-2.52-7.27-3.34-12.38-5.65-19.24-4-11.8-8.43-26.79-10.56-38.44-1.22-6.67-3.28-12.27-4.6-19.18-1.28-6.7-3.11-12.73-4.46-19.18-5.31-25.48-9.94-50-13.55-75.66-3.55-25.13-7.42-50.83-8.77-76.18l-3-104.23c-.81-14.74,1.36-62.16,3.5-74.68l5.76-56.43c4.15-50.66,28.47-146.84,43.61-195.35,11.66-37.33,25-74.87,41.67-110.34,50.94-108.41,89.69-175.85,168.33-272.54,14-17.25,32-38.87,47.94-54,5.24-5,13.09-13.1,17.22-17.93l55.4-52.56c6.57-4.65,12.72-10.06,19.86-16.43,12.73-11.35,26.46-22.26,39.7-32.32a1167.85,1167.85,0,0,1,195.29-120.18c50.27-24.54,102.11-45.55,154.87-61.35l56.92-16.44c28.4-7.73,57.33-13.09,86.2-18.68,34.34-6.65,69.23-10.51,104-13.46,6.54-.55,12.4-1.2,19-1.47l37.94-1.83c21.9-.63,43.58-1.45,65.44-.07,4.26.26,5.37-.06,9.47-.19,16.12-.51,57.15,2.84,75.38,5.05l55.56,7.17c81,10.13,206.14,47.06,277.65,79.37,12.42,5.61,24.06,11.06,36.87,16.82,47.55,21.37,103.5,53.91,145.81,82.72C-347-72.77-319.67-50.56-272.13-9.88-253.6,6-236.67,24.75-218.3,41.22l35.65,38.08Zm-1717,1499.29,42.21,47.41c4.2,4.43,7,6,11.94,11.68,6.75,7.74,16.3,15.68,23.14,22.63,49.57,50.36,130,111.89,189.42,147,31.61,18.7,63.61,37.17,96.25,53.47,8.16,4.07,16.12,7.65,23.78,11.38,23.39,11.41,48.26,21.14,72.34,30.73,55.07,21.94,112.69,39.55,170.49,51,8.59,1.7,16.1,3.67,24.92,5.27l60.92,10c2.54.36,3.79.18,6.27.6l25.06,2.86c2.93.36,3.31.77,6.24,1.12,4.1.5,7.59.34,11.79.66l104.54,5.26c3.1.07,3.4-.28,6.32-.37l62.39-1.91c29.18-1.35,58.27-4.27,87.19-8.41l50.13-8.14c38.33-7.38,75.73-16.44,113.46-26.57,21.13-5.67,41.77-12.52,62.64-20.12,52.19-19,103.34-40.63,152.81-66.57,67.59-35.46,148.14-87.33,206.65-139.49,66.23-59,94.49-86.1,151.11-154.5,5.63-6.81,12.48-15.77,18.21-23.39,12-15.91,23.39-31.29,34.55-47.68,15.93-23.43,30.87-46.67,44.69-70.75,25.2-43.9,35.13-65.46,56-108.72,2.38-4.93,3.18-7.65,5.44-12.3s3.16-6.93,5-11.54c4.65-11.76,11.06-24.14,14.74-36.2l8.68-23.94c18.93-51.85,33.26-104.61,44.4-158.26,1-4.67,1.31-7.8,2.26-12.48l6.52-36.68c.47-2.59.44-3.53.83-6.26l9.22-79.87c1.16-20.11,3.63-41.23,3.51-61.29-.08-12.43.92-24.49,0-37l-.91-37.1c-.27-4.15-.28-8.16-.48-12.64-.71-16.48-1.39-32.7-3.54-49.08-1.14-8.68-1.33-16.49-2.63-25.38-4.85-33.26-8.34-66.57-16-99.45l-5.3-24.74c-.91-4.77-2.17-8.11-3-12.79-2.28-12.45-6.7-25.56-10-37.62l-19-62.58C48.75,444.44,40,423,31.92,402.19,25.12,384.64,17.41,369,9.65,351.26,2,333.85-6.64,317.22-15.6,300.14A1161,1161,0,0,0-76,198.14c-11.43-17.29-23.9-35.24-36.47-51.76A1286.58,1286.58,0,0,0-241.27,1.94C-256-12.29-273.72-27.52-288.53-40c-47.2-39.68-91.5-71.27-142.29-102.85-8-5-15.71-9.44-23.64-14l-48.14-26.42c-23.67-13-48.74-23.44-72.89-34.79-19.12-9-62.71-25-84.06-32.46-67.35-23.52-138-39.57-208.4-49.78l-18-2.53c-18.81-1.71-36.82-4.47-55.65-5.55l-111-3c-4.79.24-7.73.1-12.63.41-4.21.27-7.64.24-11.85.42-37.62,1.62-75.24,5-112.53,10.3-33.55,4.73-66.32,12.4-99.61,18.75-4.72.9-8.41,2.36-12.8,3.26s-7.82,1.67-12.79,3c-25,6.77-50.92,13.54-75.37,22.17l-49.9,17.85c-44,15.78-84.81,35.84-127.9,58.43-70.92,37.19-144.37,85.47-206.74,141.06l-81.69,77.29c-33.82,32.11-93.47,109.41-115.84,142.34-21.21,31.21-40.41,63.28-59.23,95.92-9.07,15.74-17,31.84-25.15,48.22-23.5,47.15-42.59,95.86-59.78,145.56L-2146.91,583l-18.37,104.58a34.09,34.09,0,0,0-.88,6.25c-1,16.44-4.19,32.93-5.22,49.36l-2.85,49.5c-.18,4.79.43,7.51.11,12.62l2.62,112.09c1.44,16.78,2.75,32.71,4.87,49.94l11.13,74.73a591.32,591.32,0,0,0,13.69,63.06c1.38,5,1.8,8.35,2.93,12.78l14.19,50.48c10.34,34.14,22.19,68.57,36.43,101.42,11.17,25.76,22,50.92,34.52,76.07,4,8.13,9,17.74,13.34,26a1091.36,1091.36,0,0,0,79.55,128.32c19.18,26.63,39,53.51,61.2,78.4Z" style="fill:#521860;fill-rule:evenodd"/><path d="M-1837.58,1554.56c-93.33-104.69-172.73-237.86-216-371.06-2.67-8.24-6-16.42-8.25-24.91l-20.05-72.1c-1.08-4.24-1.4-7.19-2.72-12-1.24-4.51-1.94-8.41-2.85-12.78l-16.25-97.1c-2.28-16.11-3.43-31.34-4.81-47.57l-3.45-96.37,3.35-71.54c.48-8.48,1.69-15.13,2.13-23.53.26-5,.89-7,1.46-11.74l8.12-59.44c3.79-24,8.38-48.19,14.45-71.69,25.68-99.38,58.55-190.26,110.44-280.6,39.93-69.51,94.19-148.16,151.33-207.3,4.06-4.2,7.23-7.88,10.78-11.21l22.57-23.14c4-3.78,8.57-7.32,12.57-11.1l24.13-23c96.27-85.82,187.77-141.15,296.94-188.1,74.07-31.87,151.36-54.21,230.21-69.26,24.07-4.6,48.2-7.25,72.35-10.77l35.68-3.52c8.34-.71,15.45-1.23,23.74-1.61l72.64-2.07,83.32,4c25.29,1.33,70,8.64,94.67,12.49l82.53,17.94c8.33,2.17,15,4.09,23.28,6.39l117.48,40.68c8.37,3.34,15.48,6.71,23.86,10L-501.23-111c7.44,4.27,14.71,8,22.9,13.09l69.19,44.24c32.28,21.92,61.61,45.24,91.29,71.34C-235.58,90-163,175-105.87,268.16c10.24,16.69,20,33.35,28.56,49.73s16.87,32,24.91,48.72C-14.1,446.26,10.08,523.74,30,609.4A843.45,843.45,0,0,1,48.49,729.49c.71,8.44,1.46,15.27,2,23.77C52.56,785,55,817.09,53.38,848.8c-.24,4.66.45,7.05.17,11.84l-.91,23.59c.39,12.23-1.87,24-2.54,36.12a660.21,660.21,0,0,1-7.82,70.5l-12.59,70.22c-6.34,31.83-14.95,63-24.7,94-2.64,8.39-5.09,15.69-7.66,24-9.09,29.41-23.78,65-36.44,93.29a1104.45,1104.45,0,0,1-104,184c-68.17,97.27-167.47,199.37-271.16,268.89-57,38.2-110.64,69.67-171.86,96.45-9,3.94-16.31,7.76-25.08,11.16l-97.41,35.29c-4.44,1.5-7.48,1.88-12,3.47-34.54,12.08-73.1,18.72-108.72,26.28-8.35,1.77-15.31,2.93-23.89,4.2-20.08,3-40.19,6.6-60.39,8.47l-35.66,3.24c-15.86,1.19-32.17,2.2-48.22,2.38l-23.68.57c-4.43.33-7.51-.36-11.82-.12a87,87,0,0,1-12.61-.11l-23.61-.56-24.36-1.39c-11.69-.67-23.75-.39-35.35-2.1l-47-5.76c-4.57-.52-8-1-12.52-1.57l-23.43-3.77c-27.73-4.54-55.35-10.34-82.56-17.48l-23.28-6.35c-4.37-1.33-7.26-1.8-11.64-3.2-8.08-2.58-15.06-4.49-23.24-7.06-31.79-10-63.15-21.37-94.2-34.32-8.35-3.48-15.84-7.4-23.83-10.6-62-24.84-154-81.66-207.42-121.85-7.13-5.37-15-11.52-22.65-17.33-47.93-36.12-96-82.69-136.88-128.6Zm-9.14,8.15c18.86,21.15,38.29,38.92,56.56,58.46,29.73,31.79,95.73,82.43,127.94,105.73,31.27,22.62,62.52,41.48,93.55,59.29,45.3,26,92.68,48,141.18,67.28,16.32,6.5,31.89,12.26,47.87,17.55,19.65,6.5,38.86,13,58.87,18.12l36.5,9.51c31.45,8.25,63.79,13.79,95.9,18.44,15.9,2.3,43.67,6.45,59.49,7.27l36.89,2.89c8.44.49,15.17.08,23.61.57,4.31.25,7.49.42,11.79.69,5,.32,7.79-.36,12.62-.11l42.56,0c2.79-.07,3.36-.33,6.33-.33,8.23,0,15.47-.64,23.7-1,54.37-2.3,118.91-10.47,171.58-22.89l48.76-11.66c8.74-2.36,16.07-4.38,24.82-6.72l49-15.48c8.71-3.17,16.09-5.6,25-8.8A1065.47,1065.47,0,0,0-402,1731.42a1138.08,1138.08,0,0,0,192.6-171.69c13.47-15.11,26-30.76,38.23-45.89s24.47-31.08,35.18-46.86c40.68-59.94,78.45-121.3,107-187.77,10.19-23.68,20.34-46.53,28.74-70.87l8.27-24C20.15,1145.11,33,1106,41,1065.66L56,981.38c1.7-11.8,1.92-24.6,3.88-36,1.49-8.75.81-16.28,2.18-24.32,1.64-9.56,4.28-60.91,3.48-72.32-.55-7.74.59-16.58.18-24.42-2.14-40.5-2.3-81.57-8.05-121.86-7.09-49.66-15.09-98-28.27-146.67-9-33.4-19-66-30.78-98.72C-61.82,289.57-167.1,135.82-303.46,14.16c-57.29-51.11-120.17-94.63-186.29-132.82C-527-140.17-567-160.12-607.07-176c-69.54-27.6-97.38-36.25-167.13-54.68-31.45-8.3-63.73-13.79-95.9-18.45l-83.8-9.46c-4.38-.43-8.11-.45-12.57-.71-8.48-.48-15.27-.07-23.62-.56-4.31-.26-7.48-.42-11.78-.69l-61.51.41c-51.53,0-147.08,11.49-195.29,23.87l-48.75,11.67c-51,13.8-99.27,29.61-148.76,50.9-49.07,21.12-102.56,47.45-149.46,77-26.2,16.49-50.45,34-75.45,51.07C-1701-32.1-1743.67,3.72-1758,16.47c-24.7,22-47.47,43.87-69.91,68.51-60.22,66.13-109.14,132.14-153.57,209.54-9.06,15.79-16.7,30.89-25.1,46.64-1.94,3.65-3.53,7.37-5.5,11.51-2.22,4.66-4,7.83-6.14,12.26-1.81,3.68-3.21,7.19-5.24,11.52-32.23,68.63-55.31,140.61-73.2,214.16l-11.83,60c-1.33,8.38-2.83,15.81-3.8,24.22-4.65,40.11-6.93,52.26-9.47,96.42-.79,13.82-2.11,27.9-1.67,41.68l-.13,30.74c0,2.18-.29,3.32-.29,5.5a832.32,832.32,0,0,0,8.05,116.34l25,133.86,13.4,49.65c1.27,4.75,2.64,8.08,4,12.84,18.21,63.27,53.45,143.26,84.61,198.77,18.66,33.23,38.86,67.79,62.19,100.53l32.6,43.65c2.52,3.32,1.51,2.91,4.43,6.56l42.78,51.33Z" style="fill:#521860;fill-rule:evenodd"/><path d="M-2169.45,1060.18c5.1-4.54,1.74-11,.66-16.51-1.2-6.14-2-11.45-2.95-17.51l-4.06-25.46c-8.22-43.56-10.49-109.51-11.79-154.39-.11-3.84-.43-4.66-.21-8.69s-.27-5-.29-8.68l.88-43.31c.63-34.19,5.94-68.06,9-102l9.55-59.36c13.22-77.87,37-153.84,66.16-227.17,11.35-28.53,24.48-56.19,38.18-83.73,13.94-28,28.71-56.26,45.73-82.51l32.2-50.18c15.1-22.15,30.85-44,48.44-65.8,17.9-22.16,35.11-43.61,55.75-65.38,72-75.87,132.85-128.91,220.54-186.67,13.79-9.09,27.07-17.39,40.06-25,27.12-15.88,52.1-29.47,78.92-42.84a1131,1131,0,0,1,117.17-50c25.69-9.33,51.6-18.26,77.91-25.29l96.71-23.11c7.27-1.69,13-2.4,19.92-3.74l96.13-12.92c3.4-.28,6.2-.84,9.52-1.05,31.61-2,63.93-4.76,95.62-4.15,24.07.46,87.22,1.37,105.35,4.76l37.6,4.27c25.19,2.28,51,6.79,75.78,11.82l47.5,10.15c34.58,9,69.35,17.43,103.15,29.49,13,4.63,24.9,8.32,37.85,13.49L-547-220c81.82,39.24,147.56,77.48,221.74,133.32C-313-77.42-300.47-67.56-289.07-58c12.69,10.65,23.79,20.68,36.8,31.7,21.24,18,53,50.09,72.34,71.86,6.3,7.07,12.12,11.36,17.92,18.35l16.15,19.86c6.07,6.81,12.45,13.66,16.63,19.88,2.47,3.67,5.66,6.56,8.51,9.94C-105.21,132-69.1,183.53-56.13,204c8.72,13.76,16.78,26.54,24.7,40.05,29.61,50.48,56.54,103.07,77.58,157.37,27,69.72,48.75,140.84,62.74,214.08,6,31.62,11.56,64.13,14.51,96.21l6.32,154.08c-.41,6.68-.73,12.18-1.11,18.85-1.24,21.6-2.23,58.93-5.55,76.15l-2.3,19.57c-1.11,18.5-5.69,38-8.65,56.26l-21.08,95-16.37,55.82c-2,6.33-3.88,12.67-6.21,19.35l-16.8,46.33c-1.4,3.57-2.29,5.7-3.71,9.25l-8.22,19.23c-5,12.54-10.15,24.46-16.13,36.92-6.12,12.73-11.64,25.53-18,37.59-52.66,99-88.52,152.8-161.24,239.84l-60.15,63.55c-4.08,3.85-3.85,4.93-8.29,9l-38.29,34.5c-6.11,4.06-14.9,12.86-20.76,18.08-46,41-106.26,81.47-159.39,112.65-67.51,39.63-141.92,74.14-216.11,98.3-6.56,2.13-13.17,4.66-20.08,6.5l-19.27,6c-15.5,5.54-32.14,8.88-48.05,13.24-3.9,1.07-6.39,1.32-10.38,2.27a1315.57,1315.57,0,0,1-154.47,26.87,831.79,831.79,0,0,1-86.25,5.66c-3.57,0-6.08.38-9.47.3l-57.54-.13c-16.49-.63-49.39-1.82-66-3.83l-86.07-11.14c-31.89-5.21-63.71-11.24-95-19.5-57.37-15.12-114.09-32.94-168.6-56.55-107.26-46.47-203.88-104.67-295.44-181.3-45.79-38.32-87-79.94-127.6-125.46-9.79-11-16.7-20.52-25.85-30.65-8.91-9.85-15.83-21.12-25-31.38-3.27.45-7.48.12-8.45,4.94-.74,3.65,10.59,17.6,14,21.39l26.45,32.26c13.24,20.31,89.08,95.56,116.28,118.71,33.22,28.28,64.46,55.23,98,77.88,53.64,36.23,91.2,60.2,148.55,90l137.7,59.29c33,12,66.8,22,100.7,30.9,5,1.3,8.18,1.78,13.23,3.11,17.12,4.52,33.35,7.81,50.59,11.3,27,5.46,54.63,10.61,82,13.09,3.12.28,3.33.66,6.25,1.09l32.12,3.48c2.54.31,4.46.27,7.07.42,36.16,2,72.42,5,108.55,3.93,32-.92,64.35-1.9,96.44-4.61,25.7-2.18,52.47-4.71,77.8-9.57,8.45-1.63,16.82-3.12,25.48-4.47,17.18-2.66,34.9-7.15,51.85-10.66,96.8-20,203-62.06,289.15-107.23,35.21-18.47,70.88-40.12,106.12-63.55,19.72-13.11,63.77-44.4,80.68-59.74,5.54-5,8.54-6.31,13.2-10.23,48.29-40.52,99-90,138.82-137.12,41.15-48.67,73.54-94.36,106.83-146,30.48-47.29,55-97.48,77.9-148.45,7.43-16.49,14.1-32.4,20.7-49.27,1.85-4.72,2.38-7.46,4.36-12.36l8.92-24.71c11.23-35.72,20.34-63.73,29.82-100,1.27-4.84,1.92-8.52,3.11-13.22,5.2-20.59,9.85-41.36,13.11-62.31l7.23-44.52c.36-2.54.19-3.79.6-6.27.79-4.76.77-8,1.62-12.52,1.68-9,1.73-17.06,2.8-25.85l5.77-139.2-2-51.35c-.85-21.5-4-42.59-5.8-64.18-2.92-34.5-10.4-68.68-16.82-102.65l-5.57-25.55c-2.41-9-4-16.4-6.44-25.59-1.27-4.72-2.26-8.2-3.28-12.8s-2.44-8.44-3.67-12.83-2.19-8.12-3.45-12.81A861.72,861.72,0,0,0,53.28,387.65L30.63,335.91C-5.87,252.66-79.75,139.54-141.16,70.64c-24.12-27-50.54-55.78-75.81-80.13C-262.51-53.37-312.25-94.6-363-129.08c-24.74-16.8-47.48-31.75-73-46.4L-511-215.9c-20.78-10.34-41-20.22-62.21-28.61l-49.33-19.65c-71.12-28.65-167.5-51-245.53-62-23.37-3.29-46.34-5.89-69.75-7.23-4.51-.26-8.09-.33-12.57-.73l-14.9-1.26c-12,.18-24.17-2-36.17-1.6l-31.52-.23c-103.67,3.22-137.83,6.88-238,25.59l-104,26.86-77.23,27.09c-8.52,3.11-18.34,6.92-26.61,10.47-74.88,32.15-142,67.42-210.72,114.16-139.36,94.72-263.12,224.81-346.14,369.23-3.53,6.14-6.68,10.64-10.06,16.76-18.34,33.26-35.32,66.87-51.38,101.11l-7.65,17.69c-2.19,5.63-5,11.28-7.28,16.92l-31.23,85.71c-3.6,11.67-7.72,23.17-10.69,34.86-5.79,22.79-13,45.31-17.57,68.36-2.3,11.62-5.17,22.64-7.14,34.27-3.42,20.15-8.06,40.5-10,60.92-.34,3.64-1,4.83-1.28,8.59s-.85,5.06-1.27,8.6l-7.92,96.51c-.39,6.48.21,11-.2,17.33l.71,86.75c.26,5.93.51,11.51,1,17.4.54,6.34.78,11.94,1.32,18.2,3,35.13,7.19,70.61,13.12,105.6.78,4.62,3.14,22.66,5.2,26.35,1.59,2.81,5.62,4.55,8.45,2Z" style="fill:#521860;fill-rule:evenodd"/><path d="M-1819.3,1538.27c-42.66-47.85-76.54-94.07-108.66-145.76-28.58-46-53.8-96-75-145.41-6.94-16.12-13.16-31.27-19-47.6l-16.53-48.25c-9.5-31.4-18.74-63.9-24.89-95.23l-16.13-94.73c-4.45-31.15-5.78-63-7.26-94.22-2.22-46.71,1.11-93.47,4.68-140.05l5.85-46.17c4-34.87,11.57-69.74,20.51-103.67l31.71-103.81c1.57-4.32,3-7.25,4.57-11.56,8.32-23.31,18.56-45.55,28.42-68.52,24.14-56.26,63.4-121.71,98.51-170.92,160.46-224.85,388.1-366.71,639.74-422.55,58.36-12.95,140.25-23.92,199.23-23.92l11.83-.15c15.88.69,31.41-.62,47.28.36,8.23.51,15.33.88,23.57,1.36l22.79,1.3c4.2.25,7.65.26,11.78.66l22.71,2.63c4.53.85,7.43.38,11.77,1l23.45,3.36c7.92,1.43,14.64,2,22.67,3.44,83.13,14.87,164.18,37.36,241.86,71L-557.08-113c14.94,7.45,30.73,15.58,45.14,23.84,143.66,82.3,256.7,184.06,352.76,320.4a851.59,851.59,0,0,1,59.23,96.41c24.29,46.67,46.76,93.84,64.64,143.24,8.61,23.79,16.83,47.08,23.43,71.5L5.84,613.53c1,3.7,1.44,7.22,2.19,11.16L24,730.45l4.75,81.47c0,34.73.49,45.93-1.62,82.67L14.63,1009.75c-10,54.47-22.3,108.27-40.47,160.86-13.26,38.33-27.55,77.62-45.92,114-43.88,86.95-64.23,122.14-125.39,203.28-5.42,7.19-11.4,14.47-17.68,21.84l-60,66.72c-5.28,4.77-6.62,7.16-10.88,11.2-3.95,3.74-8.68,7.29-12.52,11.1-21.48,21.34-43.89,39.69-66.46,59.31-4.85,4.22-7,4.7-12.37,9.49-17.81,16-51.44,37.94-72.33,51.7a1029.82,1029.82,0,0,1-216.71,108.62c-69.19,25-140.65,43.34-213.55,53.61-49.07,6.92-97.21,9.31-146.45,10.84l-88.09-3.41c-23.52-1.34-46.41-5.28-69.7-8-3.76-.43-7.44-1.17-10.93-1.8-23.33-4.27-47.06-8.12-70.17-13.49l-68.33-18.1c-4.14-1.08-7.19-2.52-11.62-3.68s-7.28-2.31-11.61-3.66c-4-1.24-7.57-2.43-11.6-3.87l-45.56-16.53c-8.17-3.26-15.21-5.62-23.1-9.51l-113.47-55.8c-47.57-25.6-92.14-57.38-135.12-90.46-48.17-37.06-91.6-78.36-133.88-125.8Zm1502.53,94.91c4.16-3.71,8.3-7.42,12.48-11.11,5.37-4.73,6.52-7.13,10.82-11.2,4-3.78,8.57-7.32,12.57-11.1,18.07-17.11,35.55-37.79,52.87-56.09,45.28-47.85,96.95-124.82,129.61-181.75,8.94-15.57,16.8-30.14,24.63-45.88,4-8,7.9-15.28,11.41-23C-38.66,1240.91-21,1196-4.11,1141.9c1.42-4.54,2-7.24,3.42-11.63s2.12-7.35,3.22-11.64l6.39-23.28c8.09-30.69,13.85-62.17,19-93.5l5.12-35.18c1.25-7.37,1.39-15.94,2.31-23.52l4.31-47.83c.49-8.47.08-15.21.57-23.62l.53-23.62c.84-15.81.16-31.32-.31-47.31L36,729.56A832.62,832.62,0,0,0,17.3,610.25c-3.84-16.55-6.9-31.26-11.42-48-6.68-24.65-13.62-48.72-22-73-8.49-24.68-17.2-48.19-27.67-72.53C-182.16,95-446.9-123.31-779.51-206.91c-26.06-6.55-52.3-11-78.71-15.75-43.8-8-88.12-10.28-132.48-12.83a135.28,135.28,0,0,0-17.32-.37c-6.21.34-11.28-.62-18.12-.25l-36.28.43c-35.31,0-72,4.33-106.93,9-3.52.47-5.26.35-8.73.87-33.13,5-66,11.49-98.82,18.76-6.29,1.4-11.41,3.4-17.6,4.53-24.39,4.47-49.34,13.77-73,21.48-6.08,2-12.52,4.14-18.49,6.3-91.39,33.2-173.11,73.89-255.84,131.21-102.18,70.8-198.51,169-260,258.33C-1961.32,301.32-2010,392-2042.9,491.21c-19,57.42-32.92,115.44-43.35,174.88l-4.67,35.2c-3,25.57-9.59,87-8.09,106.75l-.33,26c-.74,12.74.14,32.3,1,45l2.27,35.6c1.35,35.91,8,71.69,13.5,107.19,1.91,12.31,4.76,23.4,7.21,35.89l13.94,57.55c7.89,29.15,17.23,58.16,27.55,86.72,17.74,49.13,40,97.28,66.58,146.5,57.72,106.74,138.42,206.28,228.38,286.51,44.39,39.58,90.59,73.14,136,102.19,11.14,7.12,23.16,14,34.28,20.63,50,29.66,102,53.65,155.71,75.23,28,11.24,58.12,21.85,87.39,29.35,55,14.09,81.09,20.89,140.14,30.38,3.63.58,4.87.94,8.6,1.25s5,1,8.6,1.29l141.38,8.9,35.51-.73c3.23-.22,5.47-.06,8.69-.28l99.05-9c6.52-.91,11.77-1.88,18.3-2.92,17.66-2.81,35.79-5.52,53.37-9.6,71.43-16.58,128.43-31.52,199.85-62.28,48.78-21,97.13-44.56,146.23-75.55,51.94-32.78,102-68.73,149-110.69Z" style="fill:#521860;fill-rule:evenodd"/><path d="M-1816.09,1523.48c69.3,77.73,160.83,157.75,251.27,209.32,54.25,30.93,95.44,52,155.66,76l44.77,16.61c15.46,4.89,29.56,9.73,44.92,14,14.79,4.09,30,8.89,45,11.91l158.55,25.64c28.86,4.25,124,3.89,160.77.68,8.08-.7,14.9-1.27,23-1.95l46-5.23c37.67-3.16,100.07-18.41,138.81-28.9,40-10.84,79.17-23.92,117.42-40.49l46.9-20.66c16.16-7.82,31.4-15.51,47.09-23.73,31.87-16.72,62.7-35.84,94.72-57.22,16.2-10.81,30.89-23.29,47.69-34.28l48.8-39.89c13.95-12.44,44.82-38.68,56.15-52,8.89-10.42,21.1-21,30.55-32.15,18.6-22,37.23-41.74,54.65-64.65,8.22-10.82,16.07-21.23,24.22-32.51,69.38-96,118.21-200.4,153.17-312.83,2.19-7,15.2-46.19,11.28-50.59-10.94-12.26-14.91,19.7-17.61,29.74a883.7,883.7,0,0,1-32.52,97.45,1174.86,1174.86,0,0,1-51.71,112.91c-26,49.34-56.93,99.56-92,142.92-16.72,20.67-33.81,44.11-52.56,63.2-5.07,5.16-9.76,11-14.35,15.73-78.85,81.72-168.95,152.81-268.64,205-65.77,34.42-135,63.16-206.54,82.53-33.84,9.16-67.85,16.45-102.22,23.13l-34.21,5.35c-4.19.6-6.84.87-11.11,1.29l-147.1,8.47c-7.33.4-14.46-1.37-22-.83-15.77,1.11-60.11-3.79-78.51-5.55-4.35-.42-6.24-1.19-11-1.43s-6.54-1.06-11-1.42c-33.08-2.71-89.49-15.57-122.37-24.13-7.76-2-15.33-3.68-22.52-5.94-50.09-15.74-72.72-23.7-120.53-42.57-88.69-35-199.54-106.12-271.68-169.56-50-43.94-74.2-70.51-117-118.15-4.56-5.07-5-7.09-8.71-11.53-57.36-68.35-109-151.62-143.74-232.91-12.91-30.23-26.41-61.26-36.24-92.73-2.33-7.47-5.39-15.8-7.36-23.29l-6.59-22.45c-19-70.21-29.95-132.87-36.12-204.66-1.92-22.24-1.26-44.9-2.8-67.16-.3-4.36.29-6.86,0-11l7.51-124.12c.27-4.49,1.17-6.46,1.44-11,1.75-29.19,15.23-90.08,23.65-122.4,7.48-28.73,16.12-60.82,26.9-88.32l21.59-55.52c28.9-72.62,85.29-167.88,134.42-229.56,16.59-20.82,34.3-44.13,53.71-63.92,13.64-13.91,27-29.91,42-43.31,5-4.45,5.28-6.2,10-10.46,41-37.51,87.82-76,131.46-105.66,46.37-31.51,90.73-56.37,139.38-79.92a909.86,909.86,0,0,1,114.59-46.08c3.62-1.18,7.3-2.37,11.24-3.69,19.2-6.46,37.42-11.08,56.91-16.36l124.37-24.29,45.21-4.91c4.31-.36,7.38-.38,11.87-.77,7.86-.68,14.69-.85,22.15-1.42l45-1.6c17.22-.92,72.12.9,89.72,2.6l32.9,3.52C-862-190-804.31-176.31-750.53-162.35c33.77,8.77,66.24,21.26,99,32.94,3.89,1.39,7.23,2.8,10.79,4.24l22.31,9.52c69,32.41,104.89,49.36,173.43,96C-416,.06-388.36,21.59-358.9,46.21c43.71,36.55,80.16,75.83,118.51,118.85,46.39,52,82.23,108.59,115.64,166.66,30.05,52.23,53,108,73.48,164.24,2.49,6.81,4.18,13.09,6.6,20.08s4.48,13.11,6.33,20.07c5.47,20.49,12.48,40.24,16.26,60.84l18.43,102c4.72,33.48,6,67.06,8.26,100.59.24,3.45.26,6.56.42,10.27.13,3.11-.93,7.55,1.55,10.33,5.46,6.13,10.56.28,10.45-10.43,0-2.43-.23-2.63-.34-4.75l-1-26.07C12.89,713.06,3.41,646.2-13.43,582.47l-20.75-72.92c-2.22-7.41-4.34-13.6-7-20.9l-7.59-20.93c-2.69-7.53-5.27-13.47-8-21-8-21.54-17.86-42.54-27.64-63.07-39.69-83.26-87.75-160.51-153.48-234.25C-301.58,78-357.16,27.34-433.57-26.22c-14.24-10-29-20.3-44.06-29.06L-544-93.35c-28.91-15.37-59.21-28.1-89.06-41.58a226.05,226.05,0,0,0-22.37-8.47c-7.48-2.45-14.91-5.92-22.38-8.38-3.68-1.22-7.29-2.62-10.82-3.79L-812.8-189.86-858-198.32c-14.85-2.69-30.61-3.67-45.35-6.42-31.17-5.81-105.28-8.38-137.52-7.54l-11,.09c-2.75,0-2.85.28-5.54.36l-29.23,1.18c-7.75.5-14.82.81-22.94,1.49l-23,1.95-115.33,18c-15.59,3.25-30.24,6.72-46.36,11.09l-23.22,6.28-46.55,14.45c-7.52,2.63-15.12,5.26-23.33,8.23-15.94,5.78-30.8,11.52-46.76,18.11-66.1,27.3-129.6,62.53-188.82,103.57-67.88,47-138.74,110.19-193.27,172.29-12.49,14.22-24.71,29.48-36.12,43.64-17,21.12-34.22,44.05-48.31,66.6-34.55,55.32-58.26,95.13-85.62,155.89-19.82,44-34.42,88.9-48.65,134.37-2.29,7.34-4.21,14.69-6.25,22.5l-13.21,56.79c-1,4.16-1.31,7.55-2.16,11.7-4.57,22.41-8.68,45.16-10.83,68-2.37,25.22-8.72,69.14-7.12,91.82l-.41,68.55c.64,22.68,1.61,46.26,4.24,68.83,4.53,39,10,77,17.65,116.1,6.91,35.23,17.23,69.8,27.73,104.86,8.46,28.23,18.87,54.76,30.44,82.15l20.85,46.91a1109.8,1109.8,0,0,0,82.79,143.49,951.93,951.93,0,0,0,75.17,96.55Z" style="fill:#521860;fill-rule:evenodd"/></g><path d="M40.24,46.85a10.85,10.85,0,0,1-5.09-1.19,9.64,9.64,0,0,1-3.62-3.25,8.88,8.88,0,0,1-1.46-4.6v-9.3a8.57,8.57,0,0,1,1.49-4.57,9.44,9.44,0,0,1,3.65-3.17,11.16,11.16,0,0,1,5-1.13,12,12,0,0,1,6.49,1.78,12.68,12.68,0,0,1,4.51,4.87,14.57,14.57,0,0,1,1.65,7,14.41,14.41,0,0,1-1.65,6.92,12.61,12.61,0,0,1-4.51,4.87,12,12,0,0,1-6.49,1.79ZM39.05,40.3a6.57,6.57,0,0,0,3.43-.89,6.29,6.29,0,0,0,2.33-2.49,7.83,7.83,0,0,0,.84-3.7,7.75,7.75,0,0,0-.84-3.66,6.13,6.13,0,0,0-2.36-2.48,6.61,6.61,0,0,0-3.46-.9,6.5,6.5,0,0,0-3.43.9,6.19,6.19,0,0,0-2.33,2.48,7.75,7.75,0,0,0-.84,3.66,7.83,7.83,0,0,0,.84,3.7,6.22,6.22,0,0,0,2.36,2.49,6.73,6.73,0,0,0,3.46.89Zm-13.31,6V7.2h7.09V26.62l-1.19,6.27,1.13,6.38v7Z" style="fill:#fff"/><path d="M73.62,35a15,15,0,0,1-7.44,1,13.43,13.43,0,0,1-6.45-2.73,13.27,13.27,0,0,1-4.24-5.9,13.25,13.25,0,0,1-.78-7.14,13.45,13.45,0,0,1,2.89-6.31,13.76,13.76,0,0,1,5.88-4.17,12.9,12.9,0,0,1,6.84-.78,12.14,12.14,0,0,1,5.9,2.73,13.53,13.53,0,0,1,3.92,5.65c.16.44.3.9.43,1.37a13.74,13.74,0,0,1,.3,1.65L60.38,28.15,58.49,23.2l17.42-6.69L74,19.6a10.55,10.55,0,0,0-2.17-3.34A5.44,5.44,0,0,0,69,14.76a6.49,6.49,0,0,0-3.45.43,6.91,6.91,0,0,0-3.09,2.19,6.11,6.11,0,0,0-1.31,3.33,8.88,8.88,0,0,0,.65,4.06,9.07,9.07,0,0,0,2.3,3.55,6.42,6.42,0,0,0,3.36,1.62,7.75,7.75,0,0,0,4-.51,9.18,9.18,0,0,0,3.15-1.92,7.44,7.44,0,0,0,1.9-2.89L81.87,27a12,12,0,0,1-3.12,4.77A15.15,15.15,0,0,1,73.62,35Z" style="fill:#fff"/><path d="M56.34,64.63v-27h7.09V64.63ZM50.23,51.15V44.93H69.54v6.22Z" style="fill:#fff"/><path d="M90,68.54V66.12a5,5,0,0,0-5.25-5.25,5.56,5.56,0,0,0-2.7.65,4.79,4.79,0,0,0-1.87,1.84,5.48,5.48,0,0,0-.67,2.76l-2.76-1.41A10.72,10.72,0,0,1,78,59.33a9.34,9.34,0,0,1,3.59-3.6,11.43,11.43,0,0,1,10.55,0,9.49,9.49,0,0,1,3.6,3.57,10.48,10.48,0,0,1,1.3,5.25v4ZM72.39,73.92V42h7.09V73.92Z" style="fill:#fff"/><path d="M93.43,54.27a14.78,14.78,0,0,1-6.55-3.67,13.84,13.84,0,0,1,.19-19.49,13.58,13.58,0,0,1,6.08-3.34,13.77,13.77,0,0,1,7.2.15,12.94,12.94,0,0,1,6,3.45,12.28,12.28,0,0,1,3.11,5.71,13.42,13.42,0,0,1-.22,6.87c-.13.45-.29.91-.47,1.36a13.74,13.74,0,0,1-.74,1.51L86.87,40.91l1.44-5.1,18,5-3.36,1.36a10.52,10.52,0,0,0,.25-4,5.48,5.48,0,0,0-1.38-2.89,6.34,6.34,0,0,0-3-1.72A7,7,0,0,0,95,33.5a6.22,6.22,0,0,0-3,1.9A9,9,0,0,0,90,39a9,9,0,0,0-.26,4.23,6.29,6.29,0,0,0,1.73,3.3,7.81,7.81,0,0,0,3.49,2,9.21,9.21,0,0,0,3.67.34,7.71,7.71,0,0,0,3.26-1.19l2.87,5.14a12,12,0,0,1-5.36,2,15.26,15.26,0,0,1-6-.52Z" style="fill:#fff"/><path d="M32.88,85V58.9H40V85ZM40,70.58l-2.76-1.84A13.72,13.72,0,0,1,40,61.14a8.27,8.27,0,0,1,6.71-2.78,9,9,0,0,1,3.41.62,7.42,7.42,0,0,1,2.75,2l-4.43,5.08a3.91,3.91,0,0,0-1.43-1,5.23,5.23,0,0,0-1.92-.32,5,5,0,0,0-3.71,1.43A5.94,5.94,0,0,0,40,70.58Z" style="fill:#fff"/><path d="M58,95.8A14.88,14.88,0,0,1,50.7,94a13.82,13.82,0,0,1-5.12-18.82,13.52,13.52,0,0,1,5-4.87,13.68,13.68,0,0,1,7-1.81,12.89,12.89,0,0,1,6.68,1.7,12.21,12.21,0,0,1,4.54,4.65,13.45,13.45,0,0,1,1.65,6.68A11.53,11.53,0,0,1,70.3,83,13.75,13.75,0,0,1,70,84.65l-22,.06v-5.3l18.66-.06-2.87,2.22A10.23,10.23,0,0,0,63,77.68a5.41,5.41,0,0,0-2.11-2.41,6.4,6.4,0,0,0-3.38-.84,7,7,0,0,0-3.68.95A6.17,6.17,0,0,0,51.43,78a10.06,10.06,0,0,0,0,8.16,6.24,6.24,0,0,0,2.57,2.71,7.81,7.81,0,0,0,3.89.95,9.36,9.36,0,0,0,3.63-.68,7.59,7.59,0,0,0,2.81-2l4.16,4.17a12.18,12.18,0,0,1-4.62,3.35A15.2,15.2,0,0,1,58,95.8Z" style="fill:#fff"/><path d="M84.81,102a16.54,16.54,0,0,1-4.39,0,15.9,15.9,0,0,1-4.1-1.14,12.4,12.4,0,0,1-3.39-2.16l3.65-4.77A8.66,8.66,0,0,0,80,95.76,9.86,9.86,0,0,0,84,96a5.53,5.53,0,0,0,2.54-.81,1.57,1.57,0,0,0,.7-1.56,1.9,1.9,0,0,0-1.15-1.55,9.17,9.17,0,0,0-2.57-.68c-1-.14-2.12-.31-3.26-.51A16.84,16.84,0,0,1,76.94,90a6.71,6.71,0,0,1-2.73-2,7.12,7.12,0,0,1-1.43-3.72,7.63,7.63,0,0,1,.66-4.44,8,8,0,0,1,3.09-3.29,13,13,0,0,1,5.19-1.7,14.67,14.67,0,0,1,6,.38l.5.16-1.63,6a7.25,7.25,0,0,0-.74-.26,8.11,8.11,0,0,0-3.27-.24,5,5,0,0,0-2.33.79,1.52,1.52,0,0,0-.66,1.45,1.68,1.68,0,0,0,1.13,1.38,10.4,10.4,0,0,0,2.56.63c1,.14,2.12.31,3.26.51a13.78,13.78,0,0,1,3.29,1,7.68,7.68,0,0,1,2.73,2.11A7.26,7.26,0,0,1,94,92.45a7.44,7.44,0,0,1-2,6.39A11.63,11.63,0,0,1,84.81,102Z" style="fill:#fff;fill-rule:evenodd"/><path d="M106.77,95.8A14,14,0,0,1,99.66,94a13.57,13.57,0,0,1-5-4.92,13.84,13.84,0,0,1,0-13.84,13.6,13.6,0,0,1,5-4.87,14.93,14.93,0,0,1,14.25,0,13.69,13.69,0,0,1,5,4.87,13.13,13.13,0,0,1,1.84,6.89A13.43,13.43,0,0,1,113.88,94a14,14,0,0,1-7.11,1.82Zm0-6.6a6.9,6.9,0,0,0,3.54-.9,6.05,6.05,0,0,0,2.38-2.48,7.73,7.73,0,0,0,.84-3.65,7.38,7.38,0,0,0-.87-3.63,6.39,6.39,0,0,0-2.38-2.46,6.83,6.83,0,0,0-3.51-.89,6.7,6.7,0,0,0-3.46.89,6.39,6.39,0,0,0-2.38,2.46,7.38,7.38,0,0,0-.87,3.63,7.52,7.52,0,0,0,.87,3.65,6.25,6.25,0,0,0,2.38,2.48,6.61,6.61,0,0,0,3.46.9Z" style="fill:#fff"/><path d="M30.19,113.59a12.7,12.7,0,0,1-6-2.06,10.69,10.69,0,0,1-3.77-4.45,11.68,11.68,0,0,1-.92-6.13L21,86.46l7.1.71L26.66,101.5a6.67,6.67,0,0,0,.27,2.82,3.7,3.7,0,0,0,1.44,1.91,5.08,5.08,0,0,0,2.47.84,4.45,4.45,0,0,0,3.58-1A5.41,5.41,0,0,0,36,102.42l1.42-14.33,7,.7-1.44,14.5A12,12,0,0,1,41,109.17a10.39,10.39,0,0,1-4.54,3.6,13,13,0,0,1-6.26.82Z" style="fill:#fff"/><path d="M50.41,127.76,46.59,99.85l7-.94,3.82,27.91-7,.94Zm4.74-17.27-3-1.46a13.68,13.68,0,0,1,1.78-7.9,8.25,8.25,0,0,1,6.28-3.65,8.79,8.79,0,0,1,3.46.17,7.31,7.31,0,0,1,3,1.64L63,104.92a3.73,3.73,0,0,0-1.55-.78,5.43,5.43,0,0,0-2-.07A5,5,0,0,0,56,106a6,6,0,0,0-.85,4.51Z" style="fill:#fff"/><path d="M75.1,129.46a14.44,14.44,0,0,1-7.19-1.78,13.74,13.74,0,0,1-5-18.77A13.4,13.4,0,0,1,67.93,104a14.37,14.37,0,0,1,7.17-1.82,14,14,0,0,1,5.68,1.14,13,13,0,0,1,4.49,3.24l-4.54,4.6a7,7,0,0,0-2.47-1.73,8.09,8.09,0,0,0-3.16-.59,6.79,6.79,0,0,0-3.49.89,6.51,6.51,0,0,0-2.43,2.43,7.13,7.13,0,0,0-.89,3.65,7.28,7.28,0,0,0,.89,3.65A6.33,6.33,0,0,0,71.61,122a6.8,6.8,0,0,0,3.49.9,7.94,7.94,0,0,0,3.22-.63,6.84,6.84,0,0,0,2.46-1.81l4.6,4.6a13.55,13.55,0,0,1-10.28,4.43Z" style="fill:#fff"/><path d="M106,126a14.89,14.89,0,0,1-7.5.26,13.2,13.2,0,0,1-9.84-9.58,13.53,13.53,0,0,1,9.6-16.8,13,13,0,0,1,6.89-.15,12.48,12.48,0,0,1,5.61,3.27,13.45,13.45,0,0,1,3.38,6c.12.45.22.92.3,1.4a14.8,14.8,0,0,1,.15,1.66L93.43,118,92,112.91l18-5-2.17,2.9a10.53,10.53,0,0,0-1.84-3.53,5.46,5.46,0,0,0-2.68-1.75,6.39,6.39,0,0,0-3.48.1,6.93,6.93,0,0,0-3.29,1.89,6.18,6.18,0,0,0-1.61,3.2,9.14,9.14,0,0,0,.27,4.1,9,9,0,0,0,2,3.75,6.19,6.19,0,0,0,3.19,1.91,7.71,7.71,0,0,0,4-.13,9.21,9.21,0,0,0,3.31-1.61,7.58,7.58,0,0,0,2.17-2.71l5.12,2.91a12.19,12.19,0,0,1-3.55,4.46A15.23,15.23,0,0,1,106,126Z" style="fill:#fff"/></svg>