<svg id="Layer_1" data-name="Layer 1" xmlns="http://www.w3.org/2000/svg" viewBox="0 0 407.65 274.04"><title>BTT_light</title><polygon points="89.68 180.79 89.68 160.71 134.42 140.09 89.68 119.41 89.68 99.4 157.54 130.65 157.54 149.54 89.68 180.79 89.68 180.79"/><polygon points="51.52 96.98 70.02 96.98 47.42 180.99 28.93 180.99 51.52 96.98 51.52 96.98"/><path d="M253.47,148.33c0-13.45-8.95-22-20.82-22s-21,8.56-21,22,9.09,22,21,22,20.82-8.56,20.82-22Zm16.74,0c0,21.87-15.16,36.1-35.71,36.1-9.62,0-17.79-3.29-23.33-10v9.09H195.49V85.73H212v36c5.67-6.32,13.58-9.35,22.54-9.35,20.55,0,35.71,14.1,35.71,36Z"/><path d="M325.1,179.69c-4,3.17-9.88,4.74-15.81,4.74-15.42,0-24.25-8.16-24.25-23.71V105.77l16.47-8.17v16.07h18.85v13.18H301.51v33.47c0,6.85,3.56,10.54,9.75,10.54a14.74,14.74,0,0,0,9.22-2.9l4.62,11.73Z"/><path d="M380,179.69c-4,3.17-9.88,4.74-15.81,4.74-15.42,0-24.25-8.16-24.25-23.71V105.77L356.4,97.6v16.07h18.85v13.18H356.4v33.47c0,6.85,3.56,10.54,9.75,10.54a14.74,14.74,0,0,0,9.22-2.9L380,179.69Z"/></svg>