<svg xmlns="http://www.w3.org/2000/svg" viewBox="0 0 78.43 91.61"><title>Asset 2</title><g id="Layer_2" data-name="Layer 2"><g id="typography"><line x1="7.44" y1="24.17" x2="7.44" y2="24.18"/><path d="M58.31,14.43H16.75a1,1,0,0,0-1,1V38.88a1,1,0,0,0,1,1H32a3.14,3.14,0,1,0,.12-3.83H19.56V18.26H57.15L59,20.12V34.21l-1.87,1.86h-11a1,1,0,0,0-.72.3L38.5,43.29H21.22a3.1,3.1,0,0,0-2-1.07,3.2,3.2,0,0,0-3.44,3.12,3.14,3.14,0,0,0,5.73,1.77h18.2a1,1,0,0,0,.72-.29l6.91-6.92h11a1,1,0,0,0,.72-.3l3.52-3.51a1,1,0,0,0,.29-.72V19a1,1,0,0,0-.29-.72L59,14.73A1,1,0,0,0,58.31,14.43Z"/><path d="M58.31,50.5H16.75a1,1,0,0,0-1,1v5.67A3.13,3.13,0,1,0,19.56,57V54.33H57.15L59,56.19V70.28l-1.87,1.86H19.56V70.08a1,1,0,0,0-.3-.72l-6.91-6.92V28.88a3.14,3.14,0,1,0-3.83-.12V63.61a1,1,0,0,0,.3.71l6.91,6.92V75a1,1,0,0,0,1,1H58.31a1,1,0,0,0,.72-.3l3.52-3.51a1,1,0,0,0,.29-.72V55a1,1,0,0,0-.29-.72L59,50.8A1,1,0,0,0,58.31,50.5Z"/><path d="M74.62,27.51a3.14,3.14,0,0,0-1.18,5.59v7.08l-4.3,4.3a1,1,0,0,0,0,1.44l4.3,4.3v26L63.13,86.57H36.5l-6.94-6.92a1,1,0,0,0-.72-.3H12.35v-4a3.14,3.14,0,1,0-3.83-.12v6.93a1,1,0,0,0,1,1H27.67l6.92,6.92a1,1,0,0,0,.72.3h29a1,1,0,0,0,.72-.3l12-12a1,1,0,0,0,.29-.72V49.06a1,1,0,0,0-.29-.72L73.84,45.2,77,42.06a1,1,0,0,0,.29-.72V33a3.13,3.13,0,0,0-2.65-5.49Z"/><path d="M64.32,0H2.12A.82.82,0,0,0,1.3.82v9.83a3.14,3.14,0,1,0,3.83.13V3.83h58L73.44,14.15v5L66.53,26a1,1,0,0,0-.3.72V37.19l-6.09,6.1h-8.2a3.15,3.15,0,1,0-.25,3.82h8.45l6.09,6.1V73.26l-6.09,6.09H41.83a3.13,3.13,0,0,0-5.51,1.28,3.15,3.15,0,0,0,3.07,3.81,3.11,3.11,0,0,0,2.49-1.26H61.3a1,1,0,0,0,.72-.29l7.74-7.74a1,1,0,0,0,.3-.72V52a1,1,0,0,0-.3-.72L63.64,45.2l6.12-6.13a1,1,0,0,0,.3-.71V27.9L77,21a1,1,0,0,0,.29-.72V12.91a.87.87,0,0,0-.24-.59L65,.28A1,1,0,0,0,64.32,0Z"/><path d="M67.24,12.67h-.12L62,7.52a1,1,0,0,0-.72-.31H9.53a1,1,0,0,0-1,1v7.32h0L1.6,22.47a1,1,0,0,0-.3.71v66.2a1,1,0,0,0,1,1H22.79a3.13,3.13,0,1,0,2.46-5.06,3.09,3.09,0,0,0-2.47,1.23H5.13V24.35h0l6.92-6.92a1,1,0,0,0,.3-.72V11H60.14l4,4a3,3,0,0,0-.12.8,3.2,3.2,0,1,0,3.2-3.2Z"/></g></g></svg>