<svg id="Layer_1" data-name="Layer 1" xmlns="http://www.w3.org/2000/svg" viewBox="0 0 676.55 618.45"><defs><style>.cls-1{fill-rule:evenodd;}</style></defs><title>loho</title><path class="cls-1" d="M97.59,196.87c.19,2.83.58,5.19,1.34,6.29,3.89,5.67,12.12,2.34,12.12-2.62V185.1H264.28c1.19,0,3.22,2.63,4.06,3.46l23.56,23.56c5,5,3.66,1.77,3.66,17.32,0,1.18-7.89,8.49-9.2,9.8-3.27,3.26-6.22,6.27-9.51,9.5-1.77,1.75-3.07,3-3.09,6.42,0,6.75.49,24.24,0,28.54-.21,2-5,6-6.64,7.61l-7.33,6.93c-.89.88-1.5,1.48-2.38,2.37s-1.34,1.81-2.7,2.05c-9.45,1.7-27.07-2.72-30.7,2.56-2.46,3.57-1.62,8.22,2.49,10.28,2.73,1.36,21.83.32,27.48.62,2.25.13,2.54,1.22,5.21,3.89C261,321.76,273,333.09,273,334.37v59c0,1.31-14.64,15.3-16.89,17.55-1.44,1.44-1.42,1.11-4.08,1.07-3.34,0-27.2-.51-29.34.36a6.69,6.69,0,0,0-1.81,11.37c1.48,1.19,4,1.72,6.59,1.72h27.72c6.29,0,6.81-1.47,10-4.65L280,405.93c1.66-1.64,6.44-6.42,6.44-8.61V330.41c0-2.49-2.49-4.67-3.87-6-3-3-13.49-13.07-14.74-14.95,1.21-1.81,5.38-5.61,7.21-7.43l7.53-7.12c3.31-3.3,4.7-3.51,4.66-10V262.7c0-1.17-.06-2.44,0-3.59,0-2,0-1.78,1.1-2.87,2.55-2.55,4.81-4.76,7.35-7.3l7.33-7.32c2.25-2.26,6-4.84,6-9v-19.4c0-4.24-5-8-8.81-11.78L274.28,175.5c-1.82-1.83-3.35-3.86-6.83-3.86H104.72c-5.59,0-7.13,4.54-7.13,9.5v15.73Z"/><path class="cls-1" d="M97.59,246.07v192c0,5.43,2.07,9.11,7.92,9.11h51.87c4.17,0,7-2.13,7.67-5.82.56-3.25-2.26-7.64-5.69-7.64H111.05V248.05c0-2.4,9.69-11.07,11.78-13.16,12.36-12.36,10.4-7.48,10.4-28h122c2.76,0,11.31,13.86,17,13.86a6.91,6.91,0,0,0,6.73-7.12c0-3.79-5.49-8.07-9-11.59-4.71-4.7-7.16-8.61-12.38-8.61H127.29c-3.58,0-5.43,1.27-6.74,3.56-1.23,2.12-.79,6.16-.79,9.51,0,5.29.91,11.93-1.27,14.17l-18,18c-2.1,2.06-2.87,3.43-2.87,7.43Z"/><path class="cls-1" d="M282.1,309.42c0,5.54,12.67,13.26,12.67,15.84v77.21c0,1.31-14.21,14.81-15.34,15.94s-14.65,15.34-15.94,15.34h-57c-1.21,0-10.29-9.7-11.77-11.19L188.76,417c-1.57-1.57-4.17-5-6.83-5h-48.7c0-2.74,0-5.59-1.51-7.6-3.67-4.87-12-2.58-12,3.64v11.48c0,8.23,16.92,5.94,21.78,5.94l34.88,0c2.22.05,1.4-.15,2.67.89,3.93,3.19,11.9,11.57,16,15.67,2.56,2.56,4.12,5.25,9,5.25h61.77c3.84,0,5.07-1.29,7-3.27l30.89-30.88c1.48-1.48,4.45-3.65,4.45-6.24V321.7c0-3.29-2.48-5.06-4.25-6.83s-3.92-4.29-5.65-5.45a10.71,10.71,0,0,1,1.28-1.49l4-4.35c1.46-1.46,4.65-4.28,4.65-6.83V276.16c0-3.72-5.53-8-10.48-4.54-6.29,4.34-.66,19.27-3.84,22.69-.73.79-1.44,1.27-2.19,2.16a26,26,0,0,1-2.19,2.56c-2.6,2.57-7.43,6.47-7.43,10.39Z"/><path class="cls-1" d="M141.54,221.13v67.31c0,7,13.46,9.09,13.46-2V228.65h91.07c1.13,0,2.52,1.92,3.27,2.67s2.67,2.14,2.67,3.27V275c0,.69-4.07,5.71-6.32,5.95l-29.33,0c-3.52,0-4.4.23-6.23,2.08l-16.62,16.64c-4.18,4.18-1.45,3.07-13.56,3.07H163.32c-3.15,0-5.26-.31-7.21,1.11a6.75,6.75,0,0,0,4,12.35H193c4.43,0,11-8.07,15.15-12.17l8.48-8.54c1-1,.73-1,2.47-1.09,6.85-.37,29.95,1.18,33.84-1,1.66-.95,5.49-5.2,7.08-6.78,2.18-2.19,5.44-4.31,5.44-8.42V232.21c0-5.34-4-7.77-6.83-10.59-1.52-1.52-2.8-2.9-4.34-4.36s-3.67-2.07-6.65-2.07H149.46c-3.83,0-7.92,2.46-7.92,5.94Z"/><path class="cls-1" d="M141.54,330.41c0,10.32-1.77,17.42,7.52,17.42,3.07,0,5.94-3.11,5.94-7.52v-2.38h90.67c1,0,5.55,4.55,5.55,5.54v40.79c0,1.43-6.83,7-8,9-2.87,4.8,1.36,10,4.86,10,5.38,0,5.71-1.94,10.39-6.63,1.35-1.35,2.41-2.43,3.77-3.76s2.47-2.39,2.47-5.05V339.51c0-3.2-4.73-6.9-6.63-8.81-2.21-2.2-5.21-6.23-9.21-6.23H148.27c-3.6,0-6.73,3-6.73,5.94Z"/><path class="cls-1" d="M119.76,265.87v99c0,3.51,12.46,14.64,15.35,17.53,6,6,6.49,5,6.44,9.79,0,2.68-.31,5.76.64,7.66a6.8,6.8,0,0,0,9.26,2.65c4.76-2.75,3.55-8.57,3.55-15.45,0-5.11-3.39-7.15-7.82-11.58L135.1,363.37c-3.16-3.06-1.87-4.38-1.87-12.77v-78c0-3.31.17-6.82-.78-9.12-2.54-6.13-12.69-4.7-12.69,2.39Z"/><polygon points="572.23 340.1 572.23 329.69 595.42 319 572.23 308.28 572.23 297.9 607.41 314.11 607.41 323.9 572.23 340.1 572.23 340.1"/><path d="M378.22,230.16c0-9.06-6-14.82-14-14.82s-14.12,5.76-14.12,14.82S356.2,245,364.19,245s14-5.77,14-14.83Zm11.28,0c0,14.74-10.21,24.33-24.06,24.33-6.49,0-12-2.22-15.72-6.75v6.13H339.15V188h11.1v24.24c3.82-4.26,9.15-6.3,15.19-6.3,13.85,0,24.06,9.5,24.06,24.24Z"/><path d="M400.06,239V188h11.1v50.26c0,4.62,2.22,7.11,6.66,7.11a9.9,9.9,0,0,0,4-.89l.53,8.88a19.1,19.1,0,0,1-6.66,1.15c-9.85,0-15.63-5.59-15.63-15.45Z"/><path d="M467,230.16c0-9.06-6-14.82-14.11-14.82s-14,5.76-14,14.82,6,14.83,14,14.83S467,239.22,467,230.16Zm10.93-23.71v47.42H467.31v-6.13c-3.73,4.53-9.23,6.75-15.72,6.75-13.85,0-24-9.59-24-24.33s10.12-24.24,24-24.24c6,0,11.37,2,15.19,6.3v-5.77Z"/><path d="M488.53,230.16c0-14.21,10.65-24.24,25.67-24.24,9.23,0,16.6,3.82,20.24,11l-8.53,5a13.42,13.42,0,0,0-11.81-6.56c-8.16,0-14.38,5.68-14.38,14.82S505.94,245,514.1,245a13.41,13.41,0,0,0,11.81-6.57l8.53,5c-3.64,7.11-11,11.1-20.24,11.1-15,0-25.67-10.12-25.67-24.33Z"/><polygon points="562.94 233.54 554.68 241.35 554.68 253.87 543.58 253.87 543.58 187.98 554.68 187.98 554.68 227.76 577.68 206.45 591 206.45 571.2 226.35 592.86 253.87 579.37 253.87 562.94 233.54 562.94 233.54"/><path d="M370.08,336.9c-2.66,2.14-6.66,3.2-10.65,3.2-10.39,0-16.34-5.5-16.34-16v-37l11.1-5.5v10.83h12.7v8.88h-12.7v22.55c0,4.62,2.4,7.1,6.57,7.1A9.9,9.9,0,0,0,367,329l3.11,7.9Z"/><path d="M384.67,318.24l0,.09,24.93-11.14c-2.79-5.28-8.52-7.95-15-6.42-7.87,1.84-12,8.65-9.95,17.47Zm30.21,3.58,7.27,5.32c-2.91,5.88-8.78,10-16.74,11.86-15.47,3.63-27.83-4-31.06-17.7s4.49-25.95,18.24-29.18c12.88-3,25.28,3.19,28.76,17.61l-33.74,15.21c3.49,4.74,9.17,6.42,15.91,4.84a17.15,17.15,0,0,0,11.36-8Z"/><path d="M428.87,315.77c0-14.21,10.65-24.24,25.66-24.24,9.23,0,16.6,3.82,20.24,11l-8.52,5a13.44,13.44,0,0,0-11.82-6.57c-8.16,0-14.38,5.68-14.38,14.83s6.22,14.83,14.38,14.83A13.44,13.44,0,0,0,466.25,324l8.52,5c-3.64,7.11-11,11.1-20.24,11.1-15,0-25.66-10.12-25.66-24.33Z"/><path d="M529.5,314.68v25.23H519.2V316c0-7.83-3.88-11.62-10.47-11.62-7.34,0-12.28,4.46-12.28,13.27v22.26H486.14V278.75h10.31V301c3.37-3.62,8.57-5.6,14.67-5.6,10.55,0,18.38,6,18.38,19.28Z"/><path d="M369.54,427.67c-2.67,2.13-6.66,3.19-10.66,3.19-10.39,0-16.34-5.5-16.34-16v-37l11.1-5.5v10.83h12.7v8.88h-12.7v22.56c0,4.62,2.4,7.1,6.57,7.1a10,10,0,0,0,6.22-2l3.11,7.9Z"/><path d="M608.08,427.67c-2.67,2.13-6.66,3.19-10.66,3.19-10.39,0-16.34-5.5-16.34-16v-37l11.1-5.5v10.83h12.7v8.88h-12.7v22.56c0,4.62,2.4,7.1,6.57,7.1a10,10,0,0,0,6.22-2l3.11,7.9Z"/><path d="M478.86,409l0,.1L503.81,398c-2.79-5.28-8.52-7.94-15-6.42-7.86,1.85-12,8.66-9.94,17.47Zm30.21,3.59,7.27,5.31c-2.91,5.89-8.79,10-16.74,11.87-15.48,3.63-27.84-4-31.06-17.7s4.49-26,18.24-29.18c12.87-3,25.28,3.18,28.75,17.6L481.8,415.7c3.48,4.75,9.17,6.43,15.91,4.85a17.23,17.23,0,0,0,11.36-8Z"/><path d="M415.47,406.54c0-9.06-6-14.83-14.12-14.83s-14,5.77-14,14.83,6,14.82,14,14.82,14.12-5.77,14.12-14.82Zm10.92-23.71v47.42H415.82v-6.13c-3.72,4.53-9.23,6.75-15.72,6.75-13.85,0-24-9.59-24-24.33s10.12-24.24,24-24.24c6,0,11.37,2,15.19,6.3v-5.77Z"/><path d="M441,415.42V364.36h11.1v50.26c0,4.62,2.22,7.1,6.66,7.1a10.12,10.12,0,0,0,4-.88l.53,8.87a19.1,19.1,0,0,1-6.66,1.15c-9.86,0-15.63-5.59-15.63-15.44Z"/><path d="M570.2,403v25.22H559.9v-23.9c0-7.83-3.88-11.62-10.47-11.62-7.34,0-12.28,4.45-12.28,13.27v22.25h-10.3V381h10.3v8.32c3.38-3.63,8.57-5.61,14.67-5.61,10.55,0,18.38,6,18.38,19.29Z"/><polygon points="552.44 296.65 562.03 296.65 550.32 340.21 540.73 340.21 552.44 296.65 552.44 296.65"/></svg>